# xmcd CD database file
#
# Track frame offsets:
#	200
#	17000
#	32750
#	48425
#	71300
#	91775
#	109700
#	124325
#	137900
#	149975
#	158375
#	176375
#	190175
#	199887
#	225725
#
# Disc length: 3302 seconds
#
# Revision: 2
# Processed by: cddbd v1.5.2PL0 Copyright (c) Steve Scherf et al.
# Submitted via: CDex 1.70beta2
#
DISCID=cc0ce40f
DTITLE=Johannes Nitsch - Christmas Colours
DYEAR=1995
DGENRE=Weihnachten - Lieder
TTITLE0=Christmas Joy
TTITLE1=E Nato Un Re
TTITLE2=What Did They Say Was The Baby´s
TTITLE3=Der Stern
TTITLE4=Om Vi Sag
TTITLE5=Mesija
TTITLE6=Giubilando
TTITLE7=Die Nacht ist vorgedrungen
TTITLE8=Nu Tandas Tusen Juleljus
TTITLE9=Rocatanc
TTITLE10=Pastiri
TTITLE11=Virgin Mary
TTITLE12=O Heiland reiss die Himmel auf
TTITLE13=Down To Earth
TTITLE14=When Was Jesus Born
EXTD=YEAR: 1995
EXTT0=
EXTT1=
EXTT2=
EXTT3=
EXTT4=
EXTT5=
EXTT6=
EXTT7=
EXTT8=
EXTT9=
EXTT10=
EXTT11=
EXTT12=
EXTT13=
EXTT14=
PLAYORDER=
